<svg xmlns="http://www.w3.org/2000/svg" viewBox="0 0 296.16 81.28"><title>Ресурс 1</title><g id="b34712dd-b19c-4ae2-a67d-d2c1b5220f4e" data-name="Слой 2"><g id="6acd1c31-6f76-41e1-ae52-d8828b10f3c2" data-name="Layer 1"><polygon points="26.59 61.56 46.08 81.28 46.08 54.45 26.59 61.56" fill="#0d3557"/><polygon points="23.05 58.02 26.59 61.56 23.05 0 23.05 58.02" fill="#0d3557"/><polygon points="25.37 40.41 26.59 61.56 46.08 54.45 46.08 46.16 33.75 46.16 25.37 40.41" fill="#2b6487"/><polygon points="37.38 14.33 23.05 0 24.37 23.03 37.38 14.33" fill="#2b6487"/><polygon points="46.08 54.45 68.94 46.12 46.08 46.12 46.08 54.45" fill="#bc585e"/><polygon points="53.13 0 78.58 23.03 78.58 0 53.13 0" fill="#2b6487"/><polygon points="53.13 0 36.42 13.38 23.05 0 53.13 0" fill="#0d3557"/><polygon points="78.58 23.03 24.37 23.03 53.13 0 78.58 23.03" fill="#174e76"/><polygon points="68.94 46.12 46.08 23.03 38.05 38.06 38.05 38.06 33.75 46.16 46.14 46.16 46.1 46.12 68.94 46.12" fill="#eb696a"/><polygon points="24.37 23.02 33.75 46.16 46.04 23.02 24.37 23.02" fill="#de6168"/><polygon points="24.37 23.02 0 23.02 33.75 46.16 24.37 23.02" fill="#eb696a"/><path d="M120.16,25.24V32.5H106.08v5.32h12.8v7.26h-12.8V56H97.94V25.24Z" fill="#676868"/><path d="M124,56V25.24h13a22,22,0,0,1,4.6.48,11.59,11.59,0,0,1,4,1.67,8.92,8.92,0,0,1,2.88,3.19,10.38,10.38,0,0,1,1.1,5A12,12,0,0,1,149.2,39a8.85,8.85,0,0,1-1.23,2.6,8.28,8.28,0,0,1-1.87,1.91,11.19,11.19,0,0,1-2.35,1.32L152.24,56H143L135.7,46h-3.52V56Zm8.14-16.63h5.19a4.35,4.35,0,0,0,2.84-.88,3.26,3.26,0,0,0,1.08-2.68,3.26,3.26,0,0,0-1.08-2.68,4.35,4.35,0,0,0-2.84-.88h-5.19Z" fill="#676868"/><path d="M152,56l12.1-30.8h8.8L185,56h-8.36l-1.76-4.84H162.1L160.34,56ZM164.52,44.6h7.92l-3.17-8.89a11.9,11.9,0,0,1-.4-1.23q-.18-.66-.4-1.89-.22,1.23-.4,1.89a12.26,12.26,0,0,1-.4,1.23Z" fill="#676868"/><path d="M237.47,25.24V32.5H228.8V56h-8.14V32.5h-8.71V25.24Z" fill="#676868"/><path d="M267.87,25.24V44.29a12.8,12.8,0,0,1-1.21,5.85A10.74,10.74,0,0,1,263.49,54,12.66,12.66,0,0,1,259,56.06a20.21,20.21,0,0,1-10.08,0A12.65,12.65,0,0,1,244.53,54a10.73,10.73,0,0,1-3.17-3.83,12.8,12.8,0,0,1-1.21-5.85V25.24h8.14V43.85q0,3.12,1.56,4.36a7.63,7.63,0,0,0,8.32,0q1.56-1.23,1.56-4.36V25.24Z" fill="#676868"/><path d="M271.79,33.65a8.32,8.32,0,0,1,.92-4,8.19,8.19,0,0,1,2.51-2.84,11.23,11.23,0,0,1,3.7-1.67,17.77,17.77,0,0,1,4.49-.55,23.57,23.57,0,0,1,5.61.66,18.5,18.5,0,0,1,4.73,1.8v7.48a13.68,13.68,0,0,0-4.49-2.22,17.55,17.55,0,0,0-5.19-.68,6.51,6.51,0,0,0-3.08.57,1.6,1.6,0,0,0-.84,1.41,1.88,1.88,0,0,0,1.19,1.65,20.45,20.45,0,0,0,3,1.25l3.85,1.34A17.16,17.16,0,0,1,292,39.76a10.5,10.5,0,0,1,3,3,8.08,8.08,0,0,1,1.19,4.53,9.65,9.65,0,0,1-1,4.55,7.59,7.59,0,0,1-2.66,2.9,11.3,11.3,0,0,1-3.94,1.52,24.74,24.74,0,0,1-4.75.44,27.08,27.08,0,0,1-6.36-.73A21.79,21.79,0,0,1,272,53.89v-7.7a18.87,18.87,0,0,0,5.68,2.68,21.08,21.08,0,0,0,5.54.79,9.61,9.61,0,0,0,3.5-.46,1.63,1.63,0,0,0,1.08-1.61,2.07,2.07,0,0,0-1.19-1.8,17.45,17.45,0,0,0-3-1.34l-3.85-1.36a17.15,17.15,0,0,1-3.85-1.91,10.61,10.61,0,0,1-3-3A8.05,8.05,0,0,1,271.79,33.65Z" fill="#676868"/><path d="M197.72,48.92c-2.37,0-5.1-2.73-5.1-6.1V38.46c0-3.37,2.73-6.1,5.1-6.1h11.23V25.24s-9.87,0-13.16,0a11.34,11.34,0,0,0-11.34,11.34V44.7A11.34,11.34,0,0,0,195.79,56h13.16V48.92Z" fill="#676868"/></g></g></svg>