<svg id="Layer_1" data-name="Layer 1" xmlns="http://www.w3.org/2000/svg" viewBox="0 0 291.15 76.95"><defs><style>.cls-1{fill:#fff;}</style></defs><title>logotype</title><path class="cls-1" d="M120.09,25.11v7.32H106V37.8h12.84v7.32H106V56.18H97.8V25.11Z" transform="translate(-5.43 -2.16)"/><path class="cls-1" d="M124,56.18V25.11h13a21.89,21.89,0,0,1,4.61.49,11.58,11.58,0,0,1,4.06,1.69,9,9,0,0,1,2.89,3.22,10.52,10.52,0,0,1,1.1,5.08,12.13,12.13,0,0,1-.44,3.44A9,9,0,0,1,148,41.64a8.33,8.33,0,0,1-1.87,1.93,11.2,11.2,0,0,1-2.36,1.33l8.52,11.27H143l-7.37-10.12h-3.53V56.18Zm8.16-16.78h5.21a4.34,4.34,0,0,0,2.85-.89,3.3,3.3,0,0,0,1.08-2.71,3.3,3.3,0,0,0-1.08-2.71,4.35,4.35,0,0,0-2.85-.89h-5.21Z" transform="translate(-5.43 -2.16)"/><path class="cls-1" d="M152,56.18l12.13-31.07h8.82l12.13,31.07H176.7l-1.77-4.88h-12.8l-1.77,4.88Zm12.58-11.54h7.94l-3.18-9a12.06,12.06,0,0,1-.4-1.24q-.18-.67-.4-1.91-.22,1.24-.4,1.91a12.43,12.43,0,0,1-.4,1.24Z" transform="translate(-5.43 -2.16)"/><path class="cls-1" d="M237.72,25.11v7.32H229V56.18h-8.16V32.43h-8.74V25.11Z" transform="translate(-5.43 -2.16)"/><path class="cls-1" d="M268.21,25.11V44.33a13,13,0,0,1-1.21,5.9,10.82,10.82,0,0,1-3.18,3.86,12.67,12.67,0,0,1-4.46,2.11,20.15,20.15,0,0,1-10.1,0,12.65,12.65,0,0,1-4.46-2.11,10.81,10.81,0,0,1-3.18-3.86,13,13,0,0,1-1.21-5.9V25.11h8.16V43.88q0,3.15,1.57,4.39a7.62,7.62,0,0,0,8.34,0Q260,47,260,43.88V25.11Z" transform="translate(-5.43 -2.16)"/><path class="cls-1" d="M272.14,33.58a8.43,8.43,0,0,1,.93-4,8.25,8.25,0,0,1,2.51-2.86A11.23,11.23,0,0,1,279.28,25a17.72,17.72,0,0,1,4.5-.55,23.51,23.51,0,0,1,5.63.67,18.48,18.48,0,0,1,4.74,1.82v7.55a13.69,13.69,0,0,0-4.5-2.24,17.5,17.5,0,0,0-5.21-.69,6.49,6.49,0,0,0-3.09.58,1.62,1.62,0,0,0-.84,1.42,1.9,1.9,0,0,0,1.19,1.66,20.44,20.44,0,0,0,3,1.26l3.86,1.35a17.16,17.16,0,0,1,3.86,1.93,10.57,10.57,0,0,1,3,3,8.19,8.19,0,0,1,1.19,4.57,9.79,9.79,0,0,1-1,4.59,7.64,7.64,0,0,1-2.67,2.93A11.29,11.29,0,0,1,289,56.4a24.66,24.66,0,0,1-4.77.44,27,27,0,0,1-6.38-.73A21.77,21.77,0,0,1,272.36,54V46.23A18.88,18.88,0,0,0,278,48.94a21,21,0,0,0,5.56.8,9.58,9.58,0,0,0,3.51-.47,1.64,1.64,0,0,0,1.08-1.62A2.09,2.09,0,0,0,287,45.84a17.45,17.45,0,0,0-3-1.35l-3.86-1.38a17.16,17.16,0,0,1-3.86-1.93,10.67,10.67,0,0,1-3-3A8.16,8.16,0,0,1,272.14,33.58Z" transform="translate(-5.43 -2.16)"/><path class="cls-1" d="M197.86,49c-2.37,0-5.11-2.75-5.11-6.15V38.44c0-3.4,2.74-6.15,5.11-6.15h11.26V25.11s-9.9,0-13.2,0a11.4,11.4,0,0,0-11.37,11.44v8.19a11.4,11.4,0,0,0,11.37,11.44h13.2V49Z" transform="translate(-5.43 -2.16)"/><path class="cls-1" d="M45.63,57.81V79.12L30.15,63.46l15.48-5.64" transform="translate(-5.43 -2.16)"/><path class="cls-1" d="M27.89,44.45l5.94,4.07.85.26h11v5.83L28.82,60.75l-.94-16.29" transform="translate(-5.43 -2.16)"/><path class="cls-1" d="M61.74,48.75l-13.1,4.78V48.75h13.1" transform="translate(-5.43 -2.16)"/><path class="cls-1" d="M78.46,2.16V20.55L58.15,2.16H78.46" transform="translate(-5.43 -2.16)"/><path class="cls-1" d="M50,2.16l-12.5,10-10-10H50" transform="translate(-5.43 -2.16)"/><path class="cls-1" d="M25.59,4.51l9.55,9.54-8.6,6.89L25.59,4.51" transform="translate(-5.43 -2.16)"/><path class="cls-1" d="M47.5,26.43,66.63,45.75H47.15l0,0h-10l3.17-6L47.5,26.43" transform="translate(-5.43 -2.16)"/><path class="cls-1" d="M44.6,25.42,34.86,43.75,27.43,25.42H44.6" transform="translate(-5.43 -2.16)"/><path class="cls-1" d="M24.19,25.42l7.22,17.82-26-17.82H24.19" transform="translate(-5.43 -2.16)"/><path class="cls-1" d="M54.2,2.63,76.06,22.43H29.48L54.2,2.63" transform="translate(-5.43 -2.16)"/><polygon class="cls-1" points="17.57 38.7 17.57 55.01 21.14 58.58 20.11 40.67 17.57 38.7"/><polygon class="cls-1" points="17.15 0 17.15 20.33 18.52 20.33 17.15 0"/></svg>